{
  "accessors": [
    {
      "bufferView": 2,
      "componentType": 5126,
      "count": 3756,
      "max": [
        0.95105999708175659,
        0.99225997924804688,
        0.5890200138092041
      ],
      "min": [
        -0.95105999708175659,
        -0.81676000356674194,
        -0.25828000903129578
      ],
      "type": "VEC3"
    },
    {
      "bufferView": 2,
      "byteOffset": 45072,
      "componentType": 5126,
      "count": 3756,
      "max": [
        0.99938976764678955,
        1,
        1
      ],
      "min": [
        -0.99941128492355347,
        -1,
        -1
      ],
      "type": "VEC3"
    },
    {
      "bufferView": 3,
      "componentType": 5126,
      "count": 3756,
      "max": [
        1,
        1,
        1,
        1
      ],
      "min": [
        -1,
        -1,
        -1,
        -1
      ],
      "type": "VEC4"
    },
    {
      "bufferView": 1,
      "componentType": 5126,
      "count": 3756,
      "max": [
        0.94169998168945312,
        0.56559997797012329
      ],
      "min": [
        0.24582000076770782,
        0.021420000120997429
      ],
      "type": "VEC2"
    },
    {
      "bufferView": 0,
      "componentType": 5125,
      "count": 5637,
      "max": [
        3755
      ],
      "min": [
        0
      ],
      "type": "SCALAR"
    },
    {
      "bufferView": 2,
      "byteOffset": 90144,
      "componentType": 5126,
      "count": 1440,
      "max": [
        0.15302999317646027,
        0.1685899943113327,
        0.13418999314308167
      ],
      "min": [
        -0.35574999451637268,
        -0.39557000994682312,
        -0.014750000089406967
      ],
      "type": "VEC3"
    },
    {
      "bufferView": 2,
      "byteOffset": 107424,
      "componentType": 5126,
      "count": 1440,
      "max": [
        0.92918521165847778,
        0.92918729782104492,
        0.87039196491241455
      ],
      "min": [
        -0.92918843030929565,
        -0.92918729782104492,
        -0.87039196491241455
      ],
      "type": "VEC3"
    },
    {
      "bufferView": 3,
      "byteOffset": 60096,
      "componentType": 5126,
      "count": 1440,
      "max": [
        0.99192386865615845,
        0.9919506311416626,
        0.93739956617355347,
        1
      ],
      "min": [
        -0.991951584815979,
        -0.99195277690887451,
        -0.9373931884765625,
        -1
      ],
      "type": "VEC4"
    },
    {
      "bufferView": 1,
      "byteOffset": 30048,
      "componentType": 5126,
      "count": 1440,
      "max": [
        0.45633000135421753,
        0.28902000188827515
      ],
      "min": [
        0.10673999786376953,
        0.25639998912811279
      ],
      "type": "VEC2"
    },
    {
      "bufferView": 0,
      "byteOffset": 22548,
      "componentType": 5125,
      "count": 2160,
      "max": [
        1439
      ],
      "min": [
        0
      ],
      "type": "SCALAR"
    }
  ],
  "asset": {
    "extras": {
      "author": "xDiegoskix (https://sketchfab.com/xDiegoskix)",
      "license": "CC-BY-4.0 (http://creativecommons.org/licenses/by/4.0/)",
      "source": "https://sketchfab.com/models/c3d597888a874a108ca7c2503a3b24e3",
      "title": "bosque de hadas"
    },
    "generator": "Sketchfab-3.20.7",
    "version": "2.0"
  },
  "bufferViews": [
    {
      "buffer": 0,
      "byteLength": 31188,
      "byteOffset": 0,
      "name": "floatBufferViews",
      "target": 34963
    },
    {
      "buffer": 0,
      "byteLength": 41568,
      "byteOffset": 31188,
      "byteStride": 8,
      "name": "floatBufferViews",
      "target": 34962
    },
    {
      "buffer": 0,
      "byteLength": 124704,
      "byteOffset": 72756,
      "byteStride": 12,
      "name": "floatBufferViews",
      "target": 34962
    },
    {
      "buffer": 0,
      "byteLength": 83136,
      "byteOffset": 197460,
      "byteStride": 16,
      "name": "floatBufferViews",
      "target": 34962
    }
  ],
  "buffers": [
    {
      "byteLength": 280596,
      "uri": "scene.bin"
    }
  ],
  "images": [
    {
      "uri": "textures/base_baseColor.png"
    },
    {
      "uri": "textures/base_emissive.png"
    },
    {
      "uri": "textures/hadas_baseColor.png"
    },
    {
      "uri": "textures/hadas_emissive.png"
    },
    {
      "uri": "textures/hadas_metallicRoughness.png"
    }
  ],
  "materials": [
    {
      "doubleSided": true,
      "emissiveFactor": [
        0.20007621950000001,
        0.20007621950000001,
        0.20007621950000001
      ],
      "emissiveTexture": {
        "index": 1,
        "texCoord": 0
      },
      "name": "base",
      "pbrMetallicRoughness": {
        "baseColorFactor": [
          1,
          1,
          1,
          1
        ],
        "baseColorTexture": {
          "index": 0,
          "texCoord": 0
        },
        "metallicFactor": 0,
        "roughnessFactor": 0.59999999999999998
      }
    },
    {
      "alphaMode": "BLEND",
      "doubleSided": true,
      "emissiveFactor": [
        1,
        1,
        1
      ],
      "emissiveTexture": {
        "index": 3,
        "texCoord": 0
      },
      "name": "hadas",
      "occlusionTexture": {
        "index": 4,
        "strength": 1,
        "texCoord": 0
      },
      "pbrMetallicRoughness": {
        "baseColorFactor": [
          1,
          1,
          1,
          0.77877286590000006
        ],
        "baseColorTexture": {
          "index": 2,
          "texCoord": 0
        },
        "metallicFactor": 0,
        "roughnessFactor": 0.59999999999999998
      }
    }
  ],
  "meshes": [
    {
      "name": "Circle_0",
      "primitives": [
        {
          "attributes": {
            "NORMAL": 1,
            "POSITION": 0,
            "TANGENT": 2,
            "TEXCOORD_0": 3
          },
          "indices": 4,
          "material": 0,
          "mode": 4
        }
      ]
    },
    {
      "name": "Circle_1",
      "primitives": [
        {
          "attributes": {
            "NORMAL": 6,
            "POSITION": 5,
            "TANGENT": 7,
            "TEXCOORD_0": 8
          },
          "indices": 9,
          "material": 1,
          "mode": 4
        }
      ]
    }
  ],
  "nodes": [
    {
      "children": [
        1
      ],
      "name": "RootNode (gltf orientation matrix)",
      "rotation": [
        -0.70710678118654746,
        -0,
        -0,
        0.70710678118654757
      ]
    },
    {
      "children": [
        2
      ],
      "name": "RootNode (model correction matrix)"
    },
    {
      "children": [
        3,
        5
      ],
      "name": "Root"
    },
    {
      "children": [
        4
      ],
      "matrix": [
        -0.29086000000000006,
        0.95517000000000007,
        -0.05519000000000001,
        0,
        -0.77110000000000001,
        -0.19988000000000003,
        0.60452000000000006,
        0,
        0.56639000000000006,
        0.21839000000000003,
        0.7946700000000001,
        0,
        4.0762500000000008,
        1.00545,
        5.9038600000000008,
        1
      ],
      "name": "Lamp"
    },
    {
      "name": "Lamp"
    },
    {
      "children": [
        6,
        7
      ],
      "matrix": [
        2.8854599999999997,
        0,
        0,
        0,
        0,
        2.8854599999999997,
        0,
        0,
        0,
        0,
        2.8854599999999997,
        0,
        0.040220000000000006,
        -0.073830000000000007,
        0.75609000000000015,
        1
      ],
      "name": "Circle"
    },
    {
      "mesh": 0,
      "name": "Circle_0"
    },
    {
      "mesh": 1,
      "name": "Circle_1"
    }
  ],
  "samplers": [
    {
      "magFilter": 9729,
      "minFilter": 9987,
      "wrapS": 10497,
      "wrapT": 10497
    }
  ],
  "scene": 0,
  "scenes": [
    {
      "name": "OSG_Scene",
      "nodes": [
        0
      ]
    }
  ],
  "textures": [
    {
      "sampler": 0,
      "source": 0
    },
    {
      "sampler": 0,
      "source": 1
    },
    {
      "sampler": 0,
      "source": 2
    },
    {
      "sampler": 0,
      "source": 3
    },
    {
      "sampler": 0,
      "source": 4
    }
  ]
}

