{
  "accessors": [
    {
      "bufferView": 2,
      "componentType": 5126,
      "count": 1190,
      "max": [
        275.52938842773438,
        945.89996337890625,
        37.849925994873047
      ],
      "min": [
        -261.66650390625,
        53.029716491699219,
        -45.647628784179688
      ],
      "type": "VEC3"
    },
    {
      "bufferView": 2,
      "byteOffset": 14280,
      "componentType": 5126,
      "count": 1190,
      "max": [
        0.99999129772186279,
        1,
        1
      ],
      "min": [
        -0.99999129772186279,
        -1,
        -1
      ],
      "type": "VEC3"
    },
    {
      "bufferView": 3,
      "componentType": 5126,
      "count": 1190,
      "max": [
        1,
        0.99999123811721802,
        0.32390466332435608,
        1
      ],
      "min": [
        -1,
        -0.13799543678760529,
        -0.32388213276863098,
        -1
      ],
      "type": "VEC4"
    },
    {
      "bufferView": 1,
      "componentType": 5126,
      "count": 1190,
      "max": [
        0.95168405771255493,
        0.95786428451538086
      ],
      "min": [
        0.041551828384399414,
        0.0112481489777565
      ],
      "type": "VEC2"
    },
    {
      "bufferView": 0,
      "componentType": 5125,
      "count": 6144,
      "max": [
        1189
      ],
      "min": [
        0
      ],
      "type": "SCALAR"
    },
    {
      "bufferView": 2,
      "byteOffset": 28560,
      "componentType": 5126,
      "count": 5278,
      "max": [
        374.9852294921875,
        4.8054695129394531,
        34.584320068359375
      ],
      "min": [
        -3.364264965057373,
        -817.75360107421875,
        -30.669641494750977
      ],
      "type": "VEC3"
    },
    {
      "bufferView": 2,
      "byteOffset": 91896,
      "componentType": 5126,
      "count": 5278,
      "max": [
        1,
        1,
        1
      ],
      "min": [
        -1,
        -1,
        -1
      ],
      "type": "VEC3"
    },
    {
      "bufferView": 3,
      "byteOffset": 19040,
      "componentType": 5126,
      "count": 5278,
      "max": [
        1,
        0.99775630235671997,
        1,
        1
      ],
      "min": [
        -1,
        -0.780373215675354,
        -1,
        -1
      ],
      "type": "VEC4"
    },
    {
      "bufferView": 1,
      "byteOffset": 9520,
      "componentType": 5126,
      "count": 5278,
      "max": [
        0.98763960599899292,
        0.97418773174285889
      ],
      "min": [
        0.31474727392196655,
        0.30751508474349976
      ],
      "type": "VEC2"
    },
    {
      "bufferView": 0,
      "byteOffset": 24576,
      "componentType": 5125,
      "count": 24984,
      "max": [
        5277
      ],
      "min": [
        0
      ],
      "type": "SCALAR"
    },
    {
      "bufferView": 4,
      "componentType": 5126,
      "count": 84,
      "max": [
        1.625
      ],
      "min": [
        0
      ],
      "type": "SCALAR"
    },
    {
      "bufferView": 5,
      "componentType": 5126,
      "count": 84,
      "max": [
        -5.760115939779098e-08,
        0.70710670948028564,
        5.7601152292363622e-08,
        1
      ],
      "min": [
        -8.1460335366045911e-08,
        -0,
        0,
        0.7071068286895752
      ],
      "type": "VEC4"
    }
  ],
  "animations": [
    {
      "channels": [
        {
          "sampler": 0,
          "target": {
            "node": 7,
            "path": "rotation"
          }
        }
      ],
      "name": "Cube.004|Cube.004Action",
      "samplers": [
        {
          "input": 10,
          "interpolation": "LINEAR",
          "output": 11
        }
      ]
    }
  ],
  "asset": {
    "extras": {
      "author": "7ASSAN (https://sketchfab.com/7ASSAN)",
      "license": "CC-BY-4.0 (http://creativecommons.org/licenses/by/4.0/)",
      "source": "https://sketchfab.com/models/581dc6a53d2d4cafb5f781127f137c6f",
      "title": "medieval_door"
    },
    "generator": "Sketchfab-3.19.6",
    "version": "2.0"
  },
  "bufferViews": [
    {
      "buffer": 0,
      "byteLength": 124512,
      "byteOffset": 0,
      "name": "floatBufferViews",
      "target": 34963
    },
    {
      "buffer": 0,
      "byteLength": 51744,
      "byteOffset": 124512,
      "byteStride": 8,
      "name": "floatBufferViews",
      "target": 34962
    },
    {
      "buffer": 0,
      "byteLength": 155232,
      "byteOffset": 176256,
      "byteStride": 12,
      "name": "floatBufferViews",
      "target": 34962
    },
    {
      "buffer": 0,
      "byteLength": 103488,
      "byteOffset": 331488,
      "byteStride": 16,
      "name": "floatBufferViews",
      "target": 34962
    },
    {
      "buffer": 0,
      "byteLength": 336,
      "byteOffset": 434976,
      "name": "floatBufferViews"
    },
    {
      "buffer": 0,
      "byteLength": 1344,
      "byteOffset": 435312,
      "byteStride": 16,
      "name": "floatBufferViews"
    }
  ],
  "buffers": [
    {
      "byteLength": 436656,
      "uri": "scene.bin"
    }
  ],
  "images": [
    {
      "uri": "textures/RootNode_metallicRoughness.png"
    },
    {
      "uri": "textures/RootNode_normal.png"
    },
    {
      "uri": "textures/RootNode_baseColor.jpg"
    }
  ],
  "materials": [
    {
      "doubleSided": true,
      "emissiveFactor": [
        0,
        0,
        0
      ],
      "name": "RootNode",
      "normalTexture": {
        "index": 1,
        "scale": 1,
        "texCoord": 0
      },
      "occlusionTexture": {
        "index": 0,
        "strength": 1,
        "texCoord": 0
      },
      "pbrMetallicRoughness": {
        "baseColorFactor": [
          1,
          1,
          1,
          1
        ],
        "baseColorTexture": {
          "index": 2,
          "texCoord": 0
        },
        "metallicFactor": 1,
        "metallicRoughnessTexture": {
          "index": 0,
          "texCoord": 0
        },
        "roughnessFactor": 1
      }
    }
  ],
  "meshes": [
    {
      "name": "Cube.000__0",
      "primitives": [
        {
          "attributes": {
            "NORMAL": 1,
            "POSITION": 0,
            "TANGENT": 2,
            "TEXCOORD_0": 3
          },
          "indices": 4,
          "material": 0,
          "mode": 4
        }
      ]
    },
    {
      "name": "Cube.004__0",
      "primitives": [
        {
          "attributes": {
            "NORMAL": 6,
            "POSITION": 5,
            "TANGENT": 7,
            "TEXCOORD_0": 8
          },
          "indices": 9,
          "material": 0,
          "mode": 4
        }
      ]
    }
  ],
  "nodes": [
    {
      "children": [
        1
      ],
      "name": "RootNode (gltf orientation matrix)",
      "rotation": [
        -0.70710678118654746,
        -0,
        -0,
        0.70710678118654757
      ]
    },
    {
      "children": [
        2
      ],
      "name": "RootNode (model correction matrix)"
    },
    {
      "children": [
        3
      ],
      "matrix": [
        1,
        0,
        0,
        0,
        0,
        0,
        1,
        0,
        0,
        -1,
        0,
        0,
        0,
        0,
        0,
        1
      ],
      "name": "a3991224f78d4dbebb59bb5f8b21aa8b.fbx"
    },
    {
      "children": [
        4
      ],
      "name": ""
    },
    {
      "children": [
        5,
        7
      ],
      "name": "RootNode"
    },
    {
      "children": [
        6
      ],
      "name": "Cube.000",
      "rotation": [
        -8.1460335366045911e-08,
        -0,
        0,
        1
      ],
      "translation": [
        0,
        -47.7620849609375,
        -1.5074656009674072
      ]
    },
    {
      "mesh": 0,
      "name": "Cube.000__0"
    },
    {
      "children": [
        8
      ],
      "name": "Cube.004",
      "rotation": [
        -8.1460335366045911e-08,
        -0,
        0,
        1
      ],
      "translation": [
        -179.02372741699219,
        821.632080078125,
        -43.822193145751953
      ]
    },
    {
      "mesh": 1,
      "name": "Cube.004__0"
    }
  ],
  "samplers": [
    {
      "magFilter": 9729,
      "minFilter": 9987,
      "wrapS": 10497,
      "wrapT": 10497
    }
  ],
  "scene": 0,
  "scenes": [
    {
      "name": "OSG_Scene",
      "nodes": [
        0
      ]
    }
  ],
  "textures": [
    {
      "sampler": 0,
      "source": 0
    },
    {
      "sampler": 0,
      "source": 1
    },
    {
      "sampler": 0,
      "source": 2
    }
  ]
}

