{
  "accessors": [
    {
      "bufferView": 2,
      "componentType": 5126,
      "count": 244,
      "max": [
        1.9467300176620483,
        1.9442800283432007,
        9.1440000534057617
      ],
      "min": [
        -1.9862200021743774,
        -1.9442800283432007,
        0
      ],
      "type": "VEC3"
    },
    {
      "bufferView": 2,
      "byteOffset": 2928,
      "componentType": 5126,
      "count": 244,
      "max": [
        0.999004065990448,
        1,
        1
      ],
      "min": [
        -0.999004065990448,
        -1,
        -1
      ],
      "type": "VEC3"
    },
    {
      "bufferView": 3,
      "componentType": 5126,
      "count": 244,
      "max": [
        1,
        1,
        0.999004065990448,
        1
      ],
      "min": [
        -1,
        -0.99858981370925903,
        -0.19056501984596252,
        1
      ],
      "type": "VEC4"
    },
    {
      "bufferView": 1,
      "componentType": 5126,
      "count": 244,
      "max": [
        0.31595000624656677,
        0.78473001718521118
      ],
      "min": [
        0.014720000326633453,
        0.68159002065658569
      ],
      "type": "VEC2"
    },
    {
      "bufferView": 1,
      "byteOffset": 1952,
      "componentType": 5126,
      "count": 244,
      "max": [
        0.99779999256134033,
        0.99779999256134033
      ],
      "min": [
        0.002199999988079071,
        0.002199999988079071
      ],
      "type": "VEC2"
    },
    {
      "bufferView": 0,
      "componentType": 5125,
      "count": 312,
      "max": [
        243
      ],
      "min": [
        0
      ],
      "type": "SCALAR"
    }
  ],
  "asset": {
    "extras": {
      "author": "David (https://sketchfab.com/david11)",
      "license": "CC-BY-4.0 (http://creativecommons.org/licenses/by/4.0/)",
      "source": "https://sketchfab.com/models/c2113de2539744209e36d1f6d42c0431",
      "title": "Tree Conifer 2"
    },
    "generator": "Sketchfab-3.19.3",
    "version": "2.0"
  },
  "bufferViews": [
    {
      "buffer": 0,
      "byteLength": 1248,
      "byteOffset": 0,
      "name": "floatBufferViews",
      "target": 34963
    },
    {
      "buffer": 0,
      "byteLength": 3904,
      "byteOffset": 1248,
      "byteStride": 8,
      "name": "floatBufferViews",
      "target": 34962
    },
    {
      "buffer": 0,
      "byteLength": 5856,
      "byteOffset": 5152,
      "byteStride": 12,
      "name": "floatBufferViews",
      "target": 34962
    },
    {
      "buffer": 0,
      "byteLength": 3904,
      "byteOffset": 11008,
      "byteStride": 16,
      "name": "floatBufferViews",
      "target": 34962
    }
  ],
  "buffers": [
    {
      "byteLength": 14912,
      "uri": "scene.bin"
    }
  ],
  "images": [
    {
      "uri": "textures/tree_conifer02_baseColor.png"
    },
    {
      "uri": "textures/tree_conifer02_metallicRoughness.png"
    }
  ],
  "materials": [
    {
      "doubleSided": false,
      "name": "tree_conifer02",
      "occlusionTexture": {
        "index": 1,
        "strength": 1,
        "texCoord": 1
      },
      "pbrMetallicRoughness": {
        "baseColorFactor": [
          1,
          1,
          1,
          1
        ],
        "baseColorTexture": {
          "index": 0,
          "texCoord": 0
        },
        "metallicFactor": 0,
        "roughnessFactor": 1
      }
    }
  ],
  "meshes": [
    {
      "name": "tree conifer.02_0",
      "primitives": [
        {
          "attributes": {
            "NORMAL": 1,
            "POSITION": 0,
            "TANGENT": 2,
            "TEXCOORD_0": 3,
            "TEXCOORD_1": 4
          },
          "indices": 5,
          "material": 0,
          "mode": 4
        }
      ]
    }
  ],
  "nodes": [
    {
      "children": [
        1
      ],
      "name": "RootNode (gltf orientation matrix)",
      "rotation": [
        -0.70710678118654746,
        -0,
        -0,
        0.70710678118654757
      ]
    },
    {
      "children": [
        2
      ],
      "name": "RootNode (model correction matrix)"
    },
    {
      "children": [
        3
      ],
      "name": "Root"
    },
    {
      "children": [
        4
      ],
      "name": "tree conifer.02"
    },
    {
      "mesh": 0,
      "name": "tree conifer.02_0"
    }
  ],
  "samplers": [
    {
      "magFilter": 9729,
      "minFilter": 9987,
      "wrapS": 10497,
      "wrapT": 10497
    }
  ],
  "scene": 0,
  "scenes": [
    {
      "name": "OSG_Scene",
      "nodes": [
        0
      ]
    }
  ],
  "textures": [
    {
      "sampler": 0,
      "source": 0
    },
    {
      "sampler": 0,
      "source": 1
    }
  ]
}

