{
  "accessors": [
    {
      "bufferView": 2,
      "componentType": 5126,
      "count": 65532,
      "max": [
        4.8990201950073242,
        1.4566109180450439,
        5.4367508888244629
      ],
      "min": [
        0.30266356468200684,
        0.76585614681243896,
        0.54235589504241943
      ],
      "type": "VEC3"
    },
    {
      "bufferView": 2,
      "byteOffset": 786384,
      "componentType": 5126,
      "count": 65532,
      "max": [
        0.99999618530273438,
        1,
        0.99999141693115234
      ],
      "min": [
        -0.99997925758361816,
        -1,
        -0.99999761581420898
      ],
      "type": "VEC3"
    },
    {
      "bufferView": 3,
      "componentType": 5126,
      "count": 65532,
      "max": [
        0.99997806549072266,
        0.99999904632568359,
        0.99999147653579712,
        1
      ],
      "min": [
        -0.9998624324798584,
        -0.9999961256980896,
        -0.99998742341995239,
        -1
      ],
      "type": "VEC4"
    },
    {
      "bufferView": 1,
      "componentType": 5126,
      "count": 65532,
      "max": [
        0.99787002801895142,
        0.99855995178222656
      ],
      "min": [
        0.0076219998300075531,
        0.0038989996537566185
      ],
      "type": "VEC2"
    },
    {
      "bufferView": 0,
      "componentType": 5125,
      "count": 325191,
      "max": [
        65531
      ],
      "min": [
        0
      ],
      "type": "SCALAR"
    },
    {
      "bufferView": 2,
      "byteOffset": 1572768,
      "componentType": 5126,
      "count": 65532,
      "max": [
        4.9616556167602539,
        2.1485562324523926,
        5.4575881958007812
      ],
      "min": [
        1.0816569328308105,
        0,
        0
      ],
      "type": "VEC3"
    },
    {
      "bufferView": 2,
      "byteOffset": 2359152,
      "componentType": 5126,
      "count": 65532,
      "max": [
        0.99999982118606567,
        0.99999916553497314,
        0.99999809265136719
      ],
      "min": [
        -0.99999362230300903,
        -0.99999898672103882,
        -0.99999600648880005
      ],
      "type": "VEC3"
    },
    {
      "bufferView": 3,
      "byteOffset": 1048512,
      "componentType": 5126,
      "count": 65532,
      "max": [
        0.99999350309371948,
        0.99998998641967773,
        1,
        1
      ],
      "min": [
        -0.99998801946640015,
        -0.99999505281448364,
        -0.99999874830245972,
        -1
      ],
      "type": "VEC4"
    },
    {
      "bufferView": 1,
      "byteOffset": 524256,
      "componentType": 5126,
      "count": 65532,
      "max": [
        0.99811798334121704,
        0.99946296215057373
      ],
      "min": [
        0.0039059999398887157,
        0.0037929997779428959
      ],
      "type": "VEC2"
    },
    {
      "bufferView": 0,
      "byteOffset": 1300764,
      "componentType": 5125,
      "count": 299298,
      "max": [
        65531
      ],
      "min": [
        0
      ],
      "type": "SCALAR"
    },
    {
      "bufferView": 2,
      "byteOffset": 3145536,
      "componentType": 5126,
      "count": 22350,
      "max": [
        5.3159375190734863,
        1.8900814056396484,
        3.2102944850921631
      ],
      "min": [
        0,
        0.32533538341522217,
        1.5734622478485107
      ],
      "type": "VEC3"
    },
    {
      "bufferView": 2,
      "byteOffset": 3413736,
      "componentType": 5126,
      "count": 22350,
      "max": [
        0.99997341632843018,
        0.99999988079071045,
        0.99998712539672852
      ],
      "min": [
        -0.99997353553771973,
        -0.99999994039535522,
        -0.99998706579208374
      ],
      "type": "VEC3"
    },
    {
      "bufferView": 3,
      "byteOffset": 2097024,
      "componentType": 5126,
      "count": 22350,
      "max": [
        0.9999735951423645,
        0.9998590350151062,
        0.99998205900192261,
        1
      ],
      "min": [
        -0.99999368190765381,
        -0.99996715784072876,
        -0.99999761581420898,
        -1
      ],
      "type": "VEC4"
    },
    {
      "bufferView": 1,
      "byteOffset": 1048512,
      "componentType": 5126,
      "count": 22350,
      "max": [
        0.99192202091217041,
        0.99909591674804688
      ],
      "min": [
        0.009154999628663063,
        0.05505099892616272
      ],
      "type": "VEC2"
    },
    {
      "bufferView": 0,
      "byteOffset": 2497956,
      "componentType": 5125,
      "count": 91113,
      "max": [
        22349
      ],
      "min": [
        0
      ],
      "type": "SCALAR"
    }
  ],
  "asset": {
    "extras": {
      "author": "osmosikum (https://sketchfab.com/osmosikum)",
      "license": "CC-BY-4.0 (http://creativecommons.org/licenses/by/4.0/)",
      "source": "https://sketchfab.com/models/bc170eb9bc8b48f4a82c381f13d022be",
      "title": "playground motorcycle 3d scan"
    },
    "generator": "Sketchfab-3.19.6",
    "version": "2.0"
  },
  "bufferViews": [
    {
      "buffer": 0,
      "byteLength": 2862408,
      "byteOffset": 0,
      "name": "floatBufferViews",
      "target": 34963
    },
    {
      "buffer": 0,
      "byteLength": 1227312,
      "byteOffset": 2862408,
      "byteStride": 8,
      "name": "floatBufferViews",
      "target": 34962
    },
    {
      "buffer": 0,
      "byteLength": 3681936,
      "byteOffset": 4089720,
      "byteStride": 12,
      "name": "floatBufferViews",
      "target": 34962
    },
    {
      "buffer": 0,
      "byteLength": 2454624,
      "byteOffset": 7771656,
      "byteStride": 16,
      "name": "floatBufferViews",
      "target": 34962
    }
  ],
  "buffers": [
    {
      "byteLength": 10226280,
      "uri": "scene.bin"
    }
  ],
  "images": [
    {
      "uri": "textures/3dbikeobj3_normal.png"
    },
    {
      "uri": "textures/3dbikeobj3_metallicRoughness.png"
    },
    {
      "uri": "textures/3dbikeobj3_baseColor.png"
    }
  ],
  "materials": [
    {
      "doubleSided": true,
      "emissiveFactor": [
        0,
        0,
        0
      ],
      "name": "3dbikeobj3",
      "normalTexture": {
        "index": 0,
        "scale": 1,
        "texCoord": 0
      },
      "pbrMetallicRoughness": {
        "baseColorFactor": [
          1,
          1,
          1,
          1
        ],
        "baseColorTexture": {
          "index": 2,
          "texCoord": 0
        },
        "metallicFactor": 0.57999999999999996,
        "metallicRoughnessTexture": {
          "index": 1,
          "texCoord": 0
        },
        "roughnessFactor": 0.85999999999999999
      }
    }
  ],
  "meshes": [
    {
      "primitives": [
        {
          "attributes": {
            "NORMAL": 1,
            "POSITION": 0,
            "TANGENT": 2,
            "TEXCOORD_0": 3
          },
          "indices": 4,
          "material": 0,
          "mode": 4
        }
      ]
    },
    {
      "primitives": [
        {
          "attributes": {
            "NORMAL": 6,
            "POSITION": 5,
            "TANGENT": 7,
            "TEXCOORD_0": 8
          },
          "indices": 9,
          "material": 0,
          "mode": 4
        }
      ]
    },
    {
      "primitives": [
        {
          "attributes": {
            "NORMAL": 11,
            "POSITION": 10,
            "TANGENT": 12,
            "TEXCOORD_0": 13
          },
          "indices": 14,
          "material": 0,
          "mode": 4
        }
      ]
    }
  ],
  "nodes": [
    {
      "children": [
        1
      ],
      "name": "RootNode (gltf orientation matrix)",
      "rotation": [
        -0.70710678118654746,
        -0,
        -0,
        0.70710678118654757
      ]
    },
    {
      "children": [
        2
      ],
      "name": "RootNode (model correction matrix)"
    },
    {
      "children": [
        3
      ],
      "matrix": [
        1,
        0,
        0,
        0,
        0,
        1,
        0,
        0,
        0,
        0,
        1,
        0,
        -2.8379287719726562,
        -1.0537427663803101,
        -0.041990268975496292,
        1
      ],
      "name": "3dbikeobj4.obj.cleaner.gles"
    },
    {
      "children": [
        4,
        5,
        6
      ],
      "name": ""
    },
    {
      "mesh": 0,
      "name": ""
    },
    {
      "mesh": 1,
      "name": ""
    },
    {
      "mesh": 2,
      "name": ""
    }
  ],
  "samplers": [
    {
      "magFilter": 9729,
      "minFilter": 9987,
      "wrapS": 10497,
      "wrapT": 10497
    }
  ],
  "scene": 0,
  "scenes": [
    {
      "name": "OSG_Scene",
      "nodes": [
        0
      ]
    }
  ],
  "textures": [
    {
      "sampler": 0,
      "source": 0
    },
    {
      "sampler": 0,
      "source": 1
    },
    {
      "sampler": 0,
      "source": 2
    }
  ]
}

